<svg width="220" height="110" viewBox="0 0 220 110" fill="none" xmlns="http://www.w3.org/2000/svg">
<g filter="url(#filter0_d_263_574)">
<path d="M4 16C4 7.16344 11.1634 0 20 0H200C208.837 0 216 7.16344 216 16V86C216 94.8366 208.837 102 200 102H20C11.1634 102 4 94.8366 4 86V16Z" fill="white" shape-rendering="crispEdges"/>
<path d="M67.704 46V25.52L69.944 27.76H63.224V23.6H72.888V46H67.704ZM85.6753 46.384C83.8406 46.384 82.1979 45.936 80.7472 45.04C79.2966 44.1227 78.1552 42.8 77.3232 41.072C76.4912 39.344 76.0752 37.2533 76.0752 34.8C76.0752 32.3467 76.4912 30.256 77.3232 28.528C78.1552 26.8 79.2966 25.488 80.7472 24.592C82.1979 23.6747 83.8406 23.216 85.6753 23.216C87.5313 23.216 89.1739 23.6747 90.6033 24.592C92.0539 25.488 93.1953 26.8 94.0273 28.528C94.8593 30.256 95.2753 32.3467 95.2753 34.8C95.2753 37.2533 94.8593 39.344 94.0273 41.072C93.1953 42.8 92.0539 44.1227 90.6033 45.04C89.1739 45.936 87.5313 46.384 85.6753 46.384ZM85.6753 42C86.5499 42 87.3073 41.7547 87.9473 41.264C88.6086 40.7733 89.1206 39.9947 89.4833 38.928C89.8673 37.8613 90.0592 36.4853 90.0592 34.8C90.0592 33.1147 89.8673 31.7387 89.4833 30.672C89.1206 29.6053 88.6086 28.8267 87.9473 28.336C87.3073 27.8453 86.5499 27.6 85.6753 27.6C84.8219 27.6 84.0646 27.8453 83.4032 28.336C82.7632 28.8267 82.2512 29.6053 81.8672 30.672C81.5046 31.7387 81.3232 33.1147 81.3232 34.8C81.3232 36.4853 81.5046 37.8613 81.8672 38.928C82.2512 39.9947 82.7632 40.7733 83.4032 41.264C84.0646 41.7547 84.8219 42 85.6753 42ZM106.69 46.384C104.855 46.384 103.213 45.936 101.762 45.04C100.311 44.1227 99.17 42.8 98.338 41.072C97.506 39.344 97.09 37.2533 97.09 34.8C97.09 32.3467 97.506 30.256 98.338 28.528C99.17 26.8 100.311 25.488 101.762 24.592C103.213 23.6747 104.855 23.216 106.69 23.216C108.546 23.216 110.189 23.6747 111.618 24.592C113.069 25.488 114.21 26.8 115.042 28.528C115.874 30.256 116.29 32.3467 116.29 34.8C116.29 37.2533 115.874 39.344 115.042 41.072C114.21 42.8 113.069 44.1227 111.618 45.04C110.189 45.936 108.546 46.384 106.69 46.384ZM106.69 42C107.565 42 108.322 41.7547 108.962 41.264C109.623 40.7733 110.135 39.9947 110.498 38.928C110.882 37.8613 111.074 36.4853 111.074 34.8C111.074 33.1147 110.882 31.7387 110.498 30.672C110.135 29.6053 109.623 28.8267 108.962 28.336C108.322 27.8453 107.565 27.6 106.69 27.6C105.837 27.6 105.079 27.8453 104.418 28.336C103.778 28.8267 103.266 29.6053 102.882 30.672C102.519 31.7387 102.338 33.1147 102.338 34.8C102.338 36.4853 102.519 37.8613 102.882 38.928C103.266 39.9947 103.778 40.7733 104.418 41.264C105.079 41.7547 105.837 42 106.69 42ZM123.289 42.48L123.417 36.4L131.449 28.784H137.401L129.689 36.624L127.097 38.736L123.289 42.48ZM119.161 46V22.256H124.153V46H119.161ZM131.993 46L126.169 38.768L129.305 34.896L138.041 46H131.993ZM144.798 42.192V27.408H148.926V42.192H144.798ZM139.262 36.752V32.848H154.494V36.752H139.262Z" fill="#048481"/>
<path d="M28.96 72.8H36.832V74.048H33.568V84H32.224V74.048H28.96V72.8ZM46.5009 80.128C46.5009 80.7893 46.3889 81.376 46.1649 81.888C45.9515 82.3893 45.6635 82.816 45.3009 83.168C44.9382 83.5093 44.5115 83.7707 44.0209 83.952C43.5409 84.1333 43.0395 84.224 42.5169 84.224C41.9835 84.224 41.4769 84.1333 40.9969 83.952C40.5169 83.7707 40.0955 83.5093 39.7329 83.168C39.3702 82.816 39.0769 82.3893 38.8529 81.888C38.6395 81.376 38.5329 80.7893 38.5329 80.128V79.936C38.5329 79.2853 38.6395 78.7093 38.8529 78.208C39.0769 77.696 39.3702 77.264 39.7329 76.912C40.1062 76.56 40.5329 76.2933 41.0129 76.112C41.4929 75.9307 41.9942 75.84 42.5169 75.84C43.0395 75.84 43.5409 75.9307 44.0209 76.112C44.5009 76.2933 44.9222 76.56 45.2849 76.912C45.6582 77.264 45.9515 77.696 46.1649 78.208C46.3889 78.7093 46.5009 79.2853 46.5009 79.936V80.128ZM42.5169 83.04C42.9009 83.04 43.2529 82.976 43.5729 82.848C43.9035 82.7093 44.1915 82.512 44.4369 82.256C44.6822 82 44.8742 81.696 45.0129 81.344C45.1515 80.9813 45.2209 80.576 45.2209 80.128V79.936C45.2209 79.5093 45.1515 79.12 45.0129 78.768C44.8742 78.4053 44.6822 78.096 44.4369 77.84C44.1915 77.584 43.9035 77.3867 43.5729 77.248C43.2422 77.0987 42.8902 77.024 42.5169 77.024C42.1435 77.024 41.7915 77.0987 41.4609 77.248C41.1302 77.3867 40.8422 77.584 40.5969 77.84C40.3515 78.096 40.1595 78.4053 40.0209 78.768C39.8822 79.12 39.8129 79.5093 39.8129 79.936V80.128C39.8129 80.576 39.8822 80.9813 40.0209 81.344C40.1595 81.696 40.3515 82 40.5969 82.256C40.8422 82.512 41.1249 82.7093 41.4449 82.848C41.7755 82.976 42.1329 83.04 42.5169 83.04ZM48.3618 76.064H50.8578V72.8H52.1058V76.064H55.1778V77.216H52.1058V82.368C52.1058 82.688 52.2498 82.848 52.5378 82.848H54.7938V84H52.0898C51.7271 84 51.4284 83.8827 51.1938 83.648C50.9698 83.4133 50.8578 83.1147 50.8578 82.752V77.216H48.3618V76.064ZM64.0146 82.656H63.8226C63.5666 83.1893 63.2093 83.584 62.7506 83.84C62.3026 84.096 61.828 84.224 61.3266 84.224C60.804 84.224 60.3186 84.1387 59.8706 83.968C59.4226 83.7867 59.028 83.5253 58.6866 83.184C58.356 82.832 58.0946 82.4053 57.9026 81.904C57.7106 81.4027 57.6146 80.8213 57.6146 80.16V79.904C57.6146 79.2533 57.7106 78.6773 57.9026 78.176C58.0946 77.6747 58.356 77.2533 58.6866 76.912C59.028 76.56 59.4226 76.2933 59.8706 76.112C60.3186 75.9307 60.7933 75.84 61.2946 75.84C61.8386 75.84 62.3293 75.9627 62.7666 76.208C63.2146 76.4427 63.5666 76.8107 63.8226 77.312H64.0146V76.064H65.2626V82.368C65.2626 82.688 65.4066 82.848 65.6946 82.848H66.0946V84H65.2466C64.884 84 64.5853 83.8827 64.3506 83.648C64.1266 83.4133 64.0146 83.1147 64.0146 82.752V82.656ZM61.4546 83.04C61.828 83.04 62.1693 82.9707 62.4786 82.832C62.7986 82.6933 63.0706 82.496 63.2946 82.24C63.5186 81.984 63.6946 81.68 63.8226 81.328C63.9506 80.9653 64.0146 80.5653 64.0146 80.128V79.936C64.0146 79.5093 63.9506 79.12 63.8226 78.768C63.6946 78.4053 63.5133 78.096 63.2786 77.84C63.0546 77.584 62.7826 77.3867 62.4626 77.248C62.1533 77.0987 61.8173 77.024 61.4546 77.024C61.0813 77.024 60.74 77.0933 60.4306 77.232C60.1213 77.3707 59.8493 77.568 59.6146 77.824C59.3906 78.0693 59.2146 78.3733 59.0866 78.736C58.9586 79.088 58.8946 79.4773 58.8946 79.904V80.16C58.8946 81.0667 59.1293 81.776 59.5986 82.288C60.0786 82.7893 60.6973 83.04 61.4546 83.04ZM67.8755 82.848H70.7555V73.952H67.9715V72.8H72.0035V82.848H74.8835V84H67.8755V82.848ZM92.8773 82.656H92.6853C92.4293 83.1893 92.0719 83.584 91.6133 83.84C91.1653 84.096 90.6906 84.224 90.1893 84.224C89.6666 84.224 89.1813 84.1387 88.7333 83.968C88.2853 83.7867 87.8906 83.5253 87.5493 83.184C87.2186 82.832 86.9573 82.4053 86.7653 81.904C86.5733 81.4027 86.4773 80.8213 86.4773 80.16V79.904C86.4773 79.2533 86.5733 78.6773 86.7653 78.176C86.9573 77.6747 87.2186 77.2533 87.5493 76.912C87.8906 76.56 88.2853 76.2933 88.7333 76.112C89.1813 75.9307 89.6559 75.84 90.1573 75.84C90.7013 75.84 91.1919 75.9627 91.6293 76.208C92.0773 76.4427 92.4293 76.8107 92.6853 77.312H92.8773V76.064H94.1253V82.368C94.1253 82.688 94.2693 82.848 94.5573 82.848H94.9573V84H94.1093C93.7466 84 93.4479 83.8827 93.2133 83.648C92.9893 83.4133 92.8773 83.1147 92.8773 82.752V82.656ZM90.3173 83.04C90.6906 83.04 91.0319 82.9707 91.3413 82.832C91.6613 82.6933 91.9333 82.496 92.1573 82.24C92.3813 81.984 92.5573 81.68 92.6853 81.328C92.8133 80.9653 92.8773 80.5653 92.8773 80.128V79.936C92.8773 79.5093 92.8133 79.12 92.6853 78.768C92.5573 78.4053 92.3759 78.096 92.1413 77.84C91.9173 77.584 91.6453 77.3867 91.3253 77.248C91.0159 77.0987 90.6799 77.024 90.3173 77.024C89.9439 77.024 89.6026 77.0933 89.2933 77.232C88.9839 77.3707 88.7119 77.568 88.4773 77.824C88.2533 78.0693 88.0773 78.3733 87.9493 78.736C87.8213 79.088 87.7573 79.4773 87.7573 79.904V80.16C87.7573 81.0667 87.9919 81.776 88.4613 82.288C88.9413 82.7893 89.5599 83.04 90.3173 83.04ZM98.3861 78.112C98.3861 78.496 98.5461 78.7893 98.8661 78.992C99.1968 79.1947 99.7941 79.328 100.658 79.392C101.586 79.4667 102.29 79.6907 102.77 80.064C103.261 80.4267 103.506 80.96 103.506 81.664V81.76C103.506 82.144 103.426 82.4907 103.266 82.8C103.117 83.0987 102.903 83.3547 102.626 83.568C102.359 83.7813 102.029 83.9413 101.634 84.048C101.25 84.1653 100.829 84.224 100.37 84.224C99.7515 84.224 99.2181 84.144 98.7701 83.984C98.3328 83.8133 97.9648 83.5947 97.6661 83.328C97.3781 83.0507 97.1595 82.7413 97.0101 82.4C96.8608 82.048 96.7755 81.696 96.7541 81.344L97.9381 81.056C97.9915 81.664 98.2261 82.1547 98.6421 82.528C99.0581 82.8907 99.6128 83.072 100.306 83.072C100.893 83.072 101.362 82.96 101.714 82.736C102.077 82.5013 102.258 82.176 102.258 81.76C102.258 81.312 102.082 80.992 101.73 80.8C101.378 80.608 100.807 80.4853 100.018 80.432C99.1008 80.368 98.3968 80.1547 97.9061 79.792C97.4155 79.4293 97.1701 78.9013 97.1701 78.208V78.112C97.1701 77.7387 97.2501 77.4133 97.4101 77.136C97.5701 76.848 97.7835 76.608 98.0501 76.416C98.3275 76.224 98.6368 76.08 98.9781 75.984C99.3195 75.888 99.6768 75.84 100.05 75.84C100.573 75.84 101.031 75.9147 101.426 76.064C101.821 76.2027 102.151 76.3893 102.418 76.624C102.685 76.848 102.887 77.1093 103.026 77.408C103.175 77.7067 103.271 78.0053 103.314 78.304L102.13 78.592C102.077 78.08 101.869 77.68 101.506 77.392C101.154 77.104 100.69 76.96 100.114 76.96C99.8901 76.96 99.6715 76.9867 99.4581 77.04C99.2555 77.0827 99.0741 77.152 98.9141 77.248C98.7541 77.344 98.6261 77.4667 98.5301 77.616C98.4341 77.7547 98.3861 77.92 98.3861 78.112ZM108.007 78.112C108.007 78.496 108.167 78.7893 108.487 78.992C108.818 79.1947 109.415 79.328 110.279 79.392C111.207 79.4667 111.911 79.6907 112.391 80.064C112.882 80.4267 113.127 80.96 113.127 81.664V81.76C113.127 82.144 113.047 82.4907 112.887 82.8C112.738 83.0987 112.524 83.3547 112.247 83.568C111.98 83.7813 111.65 83.9413 111.255 84.048C110.871 84.1653 110.45 84.224 109.991 84.224C109.372 84.224 108.839 84.144 108.391 83.984C107.954 83.8133 107.586 83.5947 107.287 83.328C106.999 83.0507 106.78 82.7413 106.631 82.4C106.482 82.048 106.396 81.696 106.375 81.344L107.559 81.056C107.612 81.664 107.847 82.1547 108.263 82.528C108.679 82.8907 109.234 83.072 109.927 83.072C110.514 83.072 110.983 82.96 111.335 82.736C111.698 82.5013 111.879 82.176 111.879 81.76C111.879 81.312 111.703 80.992 111.351 80.8C110.999 80.608 110.428 80.4853 109.639 80.432C108.722 80.368 108.018 80.1547 107.527 79.792C107.036 79.4293 106.791 78.9013 106.791 78.208V78.112C106.791 77.7387 106.871 77.4133 107.031 77.136C107.191 76.848 107.404 76.608 107.671 76.416C107.948 76.224 108.258 76.08 108.599 75.984C108.94 75.888 109.298 75.84 109.671 75.84C110.194 75.84 110.652 75.9147 111.047 76.064C111.442 76.2027 111.772 76.3893 112.039 76.624C112.306 76.848 112.508 77.1093 112.647 77.408C112.796 77.7067 112.892 78.0053 112.935 78.304L111.751 78.592C111.698 78.08 111.49 77.68 111.127 77.392C110.775 77.104 110.311 76.96 109.735 76.96C109.511 76.96 109.292 76.9867 109.079 77.04C108.876 77.0827 108.695 77.152 108.535 77.248C108.375 77.344 108.247 77.4667 108.151 77.616C108.055 77.7547 108.007 77.92 108.007 78.112ZM116.892 80.416C116.924 81.2053 117.169 81.84 117.628 82.32C118.087 82.8 118.727 83.04 119.548 83.04C119.921 83.04 120.247 82.9973 120.524 82.912C120.801 82.8267 121.036 82.7093 121.228 82.56C121.431 82.4107 121.591 82.24 121.708 82.048C121.836 81.8453 121.937 81.632 122.012 81.408L123.196 81.728C122.972 82.464 122.556 83.0667 121.948 83.536C121.351 83.9947 120.54 84.224 119.516 84.224C118.951 84.224 118.428 84.128 117.948 83.936C117.479 83.7333 117.073 83.4507 116.732 83.088C116.391 82.7253 116.124 82.2933 115.932 81.792C115.74 81.2907 115.644 80.736 115.644 80.128V79.744C115.644 79.1893 115.74 78.672 115.932 78.192C116.135 77.712 116.412 77.3013 116.764 76.96C117.116 76.608 117.527 76.336 117.996 76.144C118.476 75.9413 118.993 75.84 119.548 75.84C120.199 75.84 120.759 75.9627 121.228 76.208C121.708 76.4427 122.097 76.736 122.396 77.088C122.705 77.44 122.929 77.824 123.068 78.24C123.217 78.656 123.292 79.04 123.292 79.392V80.416H116.892ZM119.548 77.024C119.196 77.024 118.865 77.0827 118.556 77.2C118.257 77.3067 117.991 77.4613 117.756 77.664C117.532 77.8667 117.345 78.1067 117.196 78.384C117.057 78.6507 116.967 78.944 116.924 79.264H122.044C122.023 78.9227 121.937 78.6133 121.788 78.336C121.649 78.0587 121.463 77.824 121.228 77.632C121.004 77.44 120.743 77.2907 120.444 77.184C120.156 77.0773 119.857 77.024 119.548 77.024ZM127.249 78.112C127.249 78.496 127.409 78.7893 127.729 78.992C128.059 79.1947 128.657 79.328 129.521 79.392C130.449 79.4667 131.153 79.6907 131.633 80.064C132.123 80.4267 132.369 80.96 132.369 81.664V81.76C132.369 82.144 132.289 82.4907 132.129 82.8C131.979 83.0987 131.766 83.3547 131.489 83.568C131.222 83.7813 130.891 83.9413 130.497 84.048C130.113 84.1653 129.691 84.224 129.233 84.224C128.614 84.224 128.081 84.144 127.633 83.984C127.195 83.8133 126.827 83.5947 126.529 83.328C126.241 83.0507 126.022 82.7413 125.873 82.4C125.723 82.048 125.638 81.696 125.617 81.344L126.801 81.056C126.854 81.664 127.089 82.1547 127.505 82.528C127.921 82.8907 128.475 83.072 129.169 83.072C129.755 83.072 130.225 82.96 130.577 82.736C130.939 82.5013 131.121 82.176 131.121 81.76C131.121 81.312 130.945 80.992 130.593 80.8C130.241 80.608 129.67 80.4853 128.881 80.432C127.963 80.368 127.259 80.1547 126.769 79.792C126.278 79.4293 126.033 78.9013 126.033 78.208V78.112C126.033 77.7387 126.113 77.4133 126.273 77.136C126.433 76.848 126.646 76.608 126.913 76.416C127.19 76.224 127.499 76.08 127.841 75.984C128.182 75.888 128.539 75.84 128.913 75.84C129.435 75.84 129.894 75.9147 130.289 76.064C130.683 76.2027 131.014 76.3893 131.281 76.624C131.547 76.848 131.75 77.1093 131.889 77.408C132.038 77.7067 132.134 78.0053 132.177 78.304L130.993 78.592C130.939 78.08 130.731 77.68 130.369 77.392C130.017 77.104 129.553 76.96 128.977 76.96C128.753 76.96 128.534 76.9867 128.321 77.04C128.118 77.0827 127.937 77.152 127.777 77.248C127.617 77.344 127.489 77.4667 127.393 77.616C127.297 77.7547 127.249 77.92 127.249 78.112ZM136.87 78.112C136.87 78.496 137.03 78.7893 137.35 78.992C137.68 79.1947 138.278 79.328 139.142 79.392C140.07 79.4667 140.774 79.6907 141.254 80.064C141.744 80.4267 141.99 80.96 141.99 81.664V81.76C141.99 82.144 141.91 82.4907 141.75 82.8C141.6 83.0987 141.387 83.3547 141.11 83.568C140.843 83.7813 140.512 83.9413 140.118 84.048C139.734 84.1653 139.312 84.224 138.854 84.224C138.235 84.224 137.702 84.144 137.254 83.984C136.816 83.8133 136.448 83.5947 136.15 83.328C135.862 83.0507 135.643 82.7413 135.494 82.4C135.344 82.048 135.259 81.696 135.238 81.344L136.422 81.056C136.475 81.664 136.71 82.1547 137.126 82.528C137.542 82.8907 138.096 83.072 138.79 83.072C139.376 83.072 139.846 82.96 140.198 82.736C140.56 82.5013 140.742 82.176 140.742 81.76C140.742 81.312 140.566 80.992 140.214 80.8C139.862 80.608 139.291 80.4853 138.502 80.432C137.584 80.368 136.88 80.1547 136.39 79.792C135.899 79.4293 135.654 78.9013 135.654 78.208V78.112C135.654 77.7387 135.734 77.4133 135.894 77.136C136.054 76.848 136.267 76.608 136.534 76.416C136.811 76.224 137.12 76.08 137.462 75.984C137.803 75.888 138.16 75.84 138.534 75.84C139.056 75.84 139.515 75.9147 139.91 76.064C140.304 76.2027 140.635 76.3893 140.902 76.624C141.168 76.848 141.371 77.1093 141.51 77.408C141.659 77.7067 141.755 78.0053 141.798 78.304L140.614 78.592C140.56 78.08 140.352 77.68 139.99 77.392C139.638 77.104 139.174 76.96 138.598 76.96C138.374 76.96 138.155 76.9867 137.942 77.04C137.739 77.0827 137.558 77.152 137.398 77.248C137.238 77.344 137.11 77.4667 137.014 77.616C136.918 77.7547 136.87 77.92 136.87 78.112ZM152.475 84H151.227V78.304C151.227 77.9307 151.141 77.6267 150.971 77.392C150.8 77.1467 150.528 77.024 150.155 77.024C149.803 77.024 149.515 77.1573 149.291 77.424C149.077 77.68 148.971 78.08 148.971 78.624V84H147.723V78.24C147.723 77.888 147.627 77.6 147.435 77.376C147.243 77.1413 146.987 77.024 146.667 77.024C146.283 77.024 145.984 77.1627 145.771 77.44C145.568 77.7173 145.467 78.08 145.467 78.528V84H144.219V76.064H145.467V76.928H145.659C145.797 76.5547 146 76.2827 146.267 76.112C146.533 75.9307 146.848 75.84 147.211 75.84C147.595 75.84 147.909 75.9413 148.155 76.144C148.411 76.3467 148.587 76.608 148.683 76.928H148.875C149.237 76.2027 149.813 75.84 150.603 75.84C151.2 75.84 151.659 76.032 151.979 76.416C152.309 76.7893 152.475 77.28 152.475 77.888V84ZM155.375 80.416C155.407 81.2053 155.653 81.84 156.111 82.32C156.57 82.8 157.21 83.04 158.031 83.04C158.405 83.04 158.73 82.9973 159.007 82.912C159.285 82.8267 159.519 82.7093 159.711 82.56C159.914 82.4107 160.074 82.24 160.191 82.048C160.319 81.8453 160.421 81.632 160.495 81.408L161.679 81.728C161.455 82.464 161.039 83.0667 160.431 83.536C159.834 83.9947 159.023 84.224 157.999 84.224C157.434 84.224 156.911 84.128 156.431 83.936C155.962 83.7333 155.557 83.4507 155.215 83.088C154.874 82.7253 154.607 82.2933 154.415 81.792C154.223 81.2907 154.127 80.736 154.127 80.128V79.744C154.127 79.1893 154.223 78.672 154.415 78.192C154.618 77.712 154.895 77.3013 155.247 76.96C155.599 76.608 156.01 76.336 156.479 76.144C156.959 75.9413 157.477 75.84 158.031 75.84C158.682 75.84 159.242 75.9627 159.711 76.208C160.191 76.4427 160.581 76.736 160.879 77.088C161.189 77.44 161.413 77.824 161.551 78.24C161.701 78.656 161.775 79.04 161.775 79.392V80.416H155.375ZM158.031 77.024C157.679 77.024 157.349 77.0827 157.039 77.2C156.741 77.3067 156.474 77.4613 156.239 77.664C156.015 77.8667 155.829 78.1067 155.679 78.384C155.541 78.6507 155.45 78.944 155.407 79.264H160.527C160.506 78.9227 160.421 78.6133 160.271 78.336C160.133 78.0587 159.946 77.824 159.711 77.632C159.487 77.44 159.226 77.2907 158.927 77.184C158.639 77.0773 158.341 77.024 158.031 77.024ZM165.332 84H164.084V76.064H165.332V77.408H165.524C166.015 76.3627 166.868 75.84 168.084 75.84C169.002 75.84 169.732 76.128 170.276 76.704C170.82 77.2693 171.092 78.1227 171.092 79.264V84H169.844V79.52C169.844 78.688 169.658 78.064 169.284 77.648C168.911 77.232 168.404 77.024 167.764 77.024C167.007 77.024 166.41 77.2853 165.972 77.808C165.546 78.32 165.332 79.008 165.332 79.872V84ZM173.433 76.064H175.929V72.8H177.177V76.064H180.249V77.216H177.177V82.368C177.177 82.688 177.321 82.848 177.609 82.848H179.865V84H177.161C176.798 84 176.5 83.8827 176.265 83.648C176.041 83.4133 175.929 83.1147 175.929 82.752V77.216H173.433V76.064ZM184.974 78.112C184.974 78.496 185.134 78.7893 185.454 78.992C185.785 79.1947 186.382 79.328 187.246 79.392C188.174 79.4667 188.878 79.6907 189.358 80.064C189.849 80.4267 190.094 80.96 190.094 81.664V81.76C190.094 82.144 190.014 82.4907 189.854 82.8C189.705 83.0987 189.491 83.3547 189.214 83.568C188.947 83.7813 188.617 83.9413 188.222 84.048C187.838 84.1653 187.417 84.224 186.958 84.224C186.339 84.224 185.806 84.144 185.358 83.984C184.921 83.8133 184.553 83.5947 184.254 83.328C183.966 83.0507 183.747 82.7413 183.598 82.4C183.449 82.048 183.363 81.696 183.342 81.344L184.526 81.056C184.579 81.664 184.814 82.1547 185.23 82.528C185.646 82.8907 186.201 83.072 186.894 83.072C187.481 83.072 187.95 82.96 188.302 82.736C188.665 82.5013 188.846 82.176 188.846 81.76C188.846 81.312 188.67 80.992 188.318 80.8C187.966 80.608 187.395 80.4853 186.606 80.432C185.689 80.368 184.985 80.1547 184.494 79.792C184.003 79.4293 183.758 78.9013 183.758 78.208V78.112C183.758 77.7387 183.838 77.4133 183.998 77.136C184.158 76.848 184.371 76.608 184.638 76.416C184.915 76.224 185.225 76.08 185.566 75.984C185.907 75.888 186.265 75.84 186.638 75.84C187.161 75.84 187.619 75.9147 188.014 76.064C188.409 76.2027 188.739 76.3893 189.006 76.624C189.273 76.848 189.475 77.1093 189.614 77.408C189.763 77.7067 189.859 78.0053 189.902 78.304L188.718 78.592C188.665 78.08 188.457 77.68 188.094 77.392C187.742 77.104 187.278 76.96 186.702 76.96C186.478 76.96 186.259 76.9867 186.046 77.04C185.843 77.0827 185.662 77.152 185.502 77.248C185.342 77.344 185.214 77.4667 185.118 77.616C185.022 77.7547 184.974 77.92 184.974 78.112Z" fill="#5D5658"/>
</g>
<defs>
<filter id="filter0_d_263_574" x="0" y="0" width="220" height="110" filterUnits="userSpaceOnUse" color-interpolation-filters="sRGB">
<feFlood flood-opacity="0" result="BackgroundImageFix"/>
<feColorMatrix in="SourceAlpha" type="matrix" values="0 0 0 0 0 0 0 0 0 0 0 0 0 0 0 0 0 0 127 0" result="hardAlpha"/>
<feOffset dy="4"/>
<feGaussianBlur stdDeviation="2"/>
<feComposite in2="hardAlpha" operator="out"/>
<feColorMatrix type="matrix" values="0 0 0 0 0 0 0 0 0 0 0 0 0 0 0 0 0 0 0.25 0"/>
<feBlend mode="normal" in2="BackgroundImageFix" result="effect1_dropShadow_263_574"/>
<feBlend mode="normal" in="SourceGraphic" in2="effect1_dropShadow_263_574" result="shape"/>
</filter>
</defs>
</svg>
