<svg width="155" height="102" viewBox="0 0 155 102" fill="none" xmlns="http://www.w3.org/2000/svg">
<path d="M0 16C0 7.16344 7.16344 0 16 0H139C147.837 0 155 7.16344 155 16V86C155 94.8366 147.837 102 139 102H16C7.16345 102 0 94.8366 0 86V16Z" fill="white"/>
<path d="M46.364 46.384C44.8067 46.384 43.26 46.1813 41.724 45.776C40.2093 45.3493 38.908 44.752 37.82 43.984L39.868 40.016C40.7213 40.6347 41.7027 41.1253 42.812 41.488C43.9427 41.8507 45.084 42.032 46.236 42.032C47.5373 42.032 48.5613 41.776 49.308 41.264C50.0547 40.752 50.428 40.0373 50.428 39.12C50.428 38.544 50.2787 38.032 49.98 37.584C49.6813 37.136 49.148 36.7947 48.38 36.56C47.6333 36.3253 46.5773 36.208 45.212 36.208H39.484L40.636 23.6H54.3V27.76H42.492L45.18 25.392L44.38 34.384L41.692 32.016H46.428C48.6467 32.016 50.428 32.3253 51.772 32.944C53.1373 33.5413 54.1293 34.3627 54.748 35.408C55.3667 36.4533 55.676 37.6373 55.676 38.96C55.676 40.2827 55.3453 41.5093 54.684 42.64C54.0227 43.7493 52.9987 44.656 51.612 45.36C50.2467 46.0427 48.4973 46.384 46.364 46.384ZM66.6753 46.384C64.8406 46.384 63.1979 45.936 61.7472 45.04C60.2966 44.1227 59.1552 42.8 58.3232 41.072C57.4912 39.344 57.0752 37.2533 57.0752 34.8C57.0752 32.3467 57.4912 30.256 58.3232 28.528C59.1552 26.8 60.2966 25.488 61.7472 24.592C63.1979 23.6747 64.8406 23.216 66.6753 23.216C68.5313 23.216 70.1739 23.6747 71.6033 24.592C73.0539 25.488 74.1953 26.8 75.0273 28.528C75.8593 30.256 76.2753 32.3467 76.2753 34.8C76.2753 37.2533 75.8593 39.344 75.0273 41.072C74.1953 42.8 73.0539 44.1227 71.6033 45.04C70.1739 45.936 68.5313 46.384 66.6753 46.384ZM66.6753 42C67.5499 42 68.3073 41.7547 68.9473 41.264C69.6086 40.7733 70.1206 39.9947 70.4833 38.928C70.8673 37.8613 71.0592 36.4853 71.0592 34.8C71.0592 33.1147 70.8673 31.7387 70.4833 30.672C70.1206 29.6053 69.6086 28.8267 68.9473 28.336C68.3073 27.8453 67.5499 27.6 66.6753 27.6C65.8219 27.6 65.0646 27.8453 64.4032 28.336C63.7632 28.8267 63.2512 29.6053 62.8672 30.672C62.5046 31.7387 62.3232 33.1147 62.3232 34.8C62.3232 36.4853 62.5046 37.8613 62.8672 38.928C63.2512 39.9947 63.7632 40.7733 64.4032 41.264C65.0646 41.7547 65.8219 42 66.6753 42ZM87.69 46.384C85.8553 46.384 84.2127 45.936 82.762 45.04C81.3113 44.1227 80.17 42.8 79.338 41.072C78.506 39.344 78.09 37.2533 78.09 34.8C78.09 32.3467 78.506 30.256 79.338 28.528C80.17 26.8 81.3113 25.488 82.762 24.592C84.2127 23.6747 85.8553 23.216 87.69 23.216C89.546 23.216 91.1887 23.6747 92.618 24.592C94.0687 25.488 95.21 26.8 96.042 28.528C96.874 30.256 97.29 32.3467 97.29 34.8C97.29 37.2533 96.874 39.344 96.042 41.072C95.21 42.8 94.0687 44.1227 92.618 45.04C91.1887 45.936 89.546 46.384 87.69 46.384ZM87.69 42C88.5647 42 89.322 41.7547 89.962 41.264C90.6233 40.7733 91.1353 39.9947 91.498 38.928C91.882 37.8613 92.074 36.4853 92.074 34.8C92.074 33.1147 91.882 31.7387 91.498 30.672C91.1353 29.6053 90.6233 28.8267 89.962 28.336C89.322 27.8453 88.5647 27.6 87.69 27.6C86.8367 27.6 86.0793 27.8453 85.418 28.336C84.778 28.8267 84.266 29.6053 83.882 30.672C83.5193 31.7387 83.338 33.1147 83.338 34.8C83.338 36.4853 83.5193 37.8613 83.882 38.928C84.266 39.9947 84.778 40.7733 85.418 41.264C86.0793 41.7547 86.8367 42 87.69 42ZM105.377 42.192V27.408H109.505V42.192H105.377ZM99.8408 36.752V32.848H115.073V36.752H99.8408Z" fill="#048481"/>
<path d="M25.168 72.8H28.848C30.2347 72.8 31.248 73.1307 31.888 73.792C32.528 74.4533 32.848 75.5093 32.848 76.96V79.84C32.848 81.2907 32.528 82.3467 31.888 83.008C31.248 83.6693 30.2347 84 28.848 84H25.168V82.736H26.128V74.048H25.168V72.8ZM28.656 82.752C29.1467 82.752 29.568 82.704 29.92 82.608C30.2827 82.512 30.5813 82.352 30.816 82.128C31.0507 81.8933 31.2213 81.584 31.328 81.2C31.4453 80.816 31.504 80.3307 31.504 79.744V77.056C31.504 76.4693 31.4453 75.984 31.328 75.6C31.2213 75.216 31.0507 74.912 30.816 74.688C30.5813 74.4533 30.2827 74.288 29.92 74.192C29.568 74.096 29.1467 74.048 28.656 74.048H27.472V82.752H28.656ZM40.7729 82.656H40.5809C40.3249 83.1893 39.9675 83.584 39.5089 83.84C39.0609 84.096 38.5862 84.224 38.0849 84.224C37.5622 84.224 37.0769 84.1387 36.6289 83.968C36.1809 83.7867 35.7862 83.5253 35.4449 83.184C35.1142 82.832 34.8529 82.4053 34.6609 81.904C34.4689 81.4027 34.3729 80.8213 34.3729 80.16V79.904C34.3729 79.2533 34.4689 78.6773 34.6609 78.176C34.8529 77.6747 35.1142 77.2533 35.4449 76.912C35.7862 76.56 36.1809 76.2933 36.6289 76.112C37.0769 75.9307 37.5515 75.84 38.0529 75.84C38.5969 75.84 39.0875 75.9627 39.5249 76.208C39.9729 76.4427 40.3249 76.8107 40.5809 77.312H40.7729V76.064H42.0209V82.368C42.0209 82.688 42.1649 82.848 42.4529 82.848H42.8529V84H42.0049C41.6422 84 41.3435 83.8827 41.1089 83.648C40.8849 83.4133 40.7729 83.1147 40.7729 82.752V82.656ZM38.2129 83.04C38.5862 83.04 38.9275 82.9707 39.2369 82.832C39.5569 82.6933 39.8289 82.496 40.0529 82.24C40.2769 81.984 40.4529 81.68 40.5809 81.328C40.7089 80.9653 40.7729 80.5653 40.7729 80.128V79.936C40.7729 79.5093 40.7089 79.12 40.5809 78.768C40.4529 78.4053 40.2715 78.096 40.0369 77.84C39.8129 77.584 39.5409 77.3867 39.2209 77.248C38.9115 77.0987 38.5755 77.024 38.2129 77.024C37.8395 77.024 37.4982 77.0933 37.1889 77.232C36.8795 77.3707 36.6075 77.568 36.3729 77.824C36.1489 78.0693 35.9729 78.3733 35.8449 78.736C35.7169 79.088 35.6529 79.4773 35.6529 79.904V80.16C35.6529 81.0667 35.8875 81.776 36.3569 82.288C36.8369 82.7893 37.4555 83.04 38.2129 83.04ZM47.0978 73.696C47.0978 73.3867 47.2044 73.1253 47.4178 72.912C47.6418 72.688 47.9084 72.576 48.2178 72.576C48.5271 72.576 48.7884 72.688 49.0018 72.912C49.2258 73.1253 49.3378 73.3867 49.3378 73.696C49.3378 74.0053 49.2258 74.272 49.0018 74.496C48.7884 74.7093 48.5271 74.816 48.2178 74.816C47.9084 74.816 47.6418 74.7093 47.4178 74.496C47.2044 74.272 47.0978 74.0053 47.0978 73.696ZM44.8258 82.848H47.6098V77.216H45.1138V76.064H48.8578V82.848H51.4498V84H44.8258V82.848ZM54.2546 82.848H57.1346V73.952H54.3506V72.8H58.3826V82.848H61.2626V84H54.2546V82.848ZM69.6355 82.56H69.4435C69.1875 83.072 68.8515 83.4773 68.4355 83.776C68.0195 84.0747 67.4915 84.224 66.8515 84.224C66.4142 84.224 66.0088 84.1493 65.6355 84C65.2728 83.8613 64.9582 83.648 64.6915 83.36C64.4355 83.072 64.2328 82.7147 64.0835 82.288C63.9448 81.8613 63.8755 81.3653 63.8755 80.8V76.064H65.1235V80.64C65.1235 81.472 65.2942 82.08 65.6355 82.464C65.9768 82.848 66.4995 83.04 67.2035 83.04C67.9608 83.04 68.5528 82.784 68.9795 82.272C69.4168 81.7493 69.6355 81.056 69.6355 80.192V76.064H70.8835V85.952C70.8835 86.3147 70.7662 86.6133 70.5315 86.848C70.3075 87.0827 70.0142 87.2 69.6515 87.2H65.1235V86.048H69.2035C69.4915 86.048 69.6355 85.888 69.6355 85.568V82.56ZM82.8453 76.064H85.3413V72.8H86.5893V76.064H89.6613V77.216H86.5893V82.368C86.5893 82.688 86.7333 82.848 87.0213 82.848H89.2773V84H86.5733C86.2106 84 85.9119 83.8827 85.6773 83.648C85.4533 83.4133 85.3413 83.1147 85.3413 82.752V77.216H82.8453V76.064ZM93.6501 80.416C93.6821 81.2053 93.9275 81.84 94.3861 82.32C94.8448 82.8 95.4848 83.04 96.3061 83.04C96.6795 83.04 97.0048 82.9973 97.2821 82.912C97.5595 82.8267 97.7941 82.7093 97.9861 82.56C98.1888 82.4107 98.3488 82.24 98.4661 82.048C98.5941 81.8453 98.6955 81.632 98.7701 81.408L99.9541 81.728C99.7301 82.464 99.3141 83.0667 98.7061 83.536C98.1088 83.9947 97.2981 84.224 96.2741 84.224C95.7088 84.224 95.1861 84.128 94.7061 83.936C94.2368 83.7333 93.8315 83.4507 93.4901 83.088C93.1488 82.7253 92.8821 82.2933 92.6901 81.792C92.4981 81.2907 92.4021 80.736 92.4021 80.128V79.744C92.4021 79.1893 92.4981 78.672 92.6901 78.192C92.8928 77.712 93.1701 77.3013 93.5221 76.96C93.8741 76.608 94.2848 76.336 94.7541 76.144C95.2341 75.9413 95.7515 75.84 96.3061 75.84C96.9568 75.84 97.5168 75.9627 97.9861 76.208C98.4661 76.4427 98.8555 76.736 99.1541 77.088C99.4635 77.44 99.6875 77.824 99.8261 78.24C99.9755 78.656 100.05 79.04 100.05 79.392V80.416H93.6501ZM96.3061 77.024C95.9541 77.024 95.6235 77.0827 95.3141 77.2C95.0155 77.3067 94.7488 77.4613 94.5141 77.664C94.2901 77.8667 94.1035 78.1067 93.9541 78.384C93.8155 78.6507 93.7248 78.944 93.6821 79.264H98.8021C98.7808 78.9227 98.6955 78.6133 98.5461 78.336C98.4075 78.0587 98.2208 77.824 97.9861 77.632C97.7621 77.44 97.5008 77.2907 97.2021 77.184C96.9141 77.0773 96.6155 77.024 96.3061 77.024ZM104.007 78.112C104.007 78.496 104.167 78.7893 104.487 78.992C104.818 79.1947 105.415 79.328 106.279 79.392C107.207 79.4667 107.911 79.6907 108.391 80.064C108.882 80.4267 109.127 80.96 109.127 81.664V81.76C109.127 82.144 109.047 82.4907 108.887 82.8C108.738 83.0987 108.524 83.3547 108.247 83.568C107.98 83.7813 107.65 83.9413 107.255 84.048C106.871 84.1653 106.45 84.224 105.991 84.224C105.372 84.224 104.839 84.144 104.391 83.984C103.954 83.8133 103.586 83.5947 103.287 83.328C102.999 83.0507 102.78 82.7413 102.631 82.4C102.482 82.048 102.396 81.696 102.375 81.344L103.559 81.056C103.612 81.664 103.847 82.1547 104.263 82.528C104.679 82.8907 105.234 83.072 105.927 83.072C106.514 83.072 106.983 82.96 107.335 82.736C107.698 82.5013 107.879 82.176 107.879 81.76C107.879 81.312 107.703 80.992 107.351 80.8C106.999 80.608 106.428 80.4853 105.639 80.432C104.722 80.368 104.018 80.1547 103.527 79.792C103.036 79.4293 102.791 78.9013 102.791 78.208V78.112C102.791 77.7387 102.871 77.4133 103.031 77.136C103.191 76.848 103.404 76.608 103.671 76.416C103.948 76.224 104.258 76.08 104.599 75.984C104.94 75.888 105.298 75.84 105.671 75.84C106.194 75.84 106.652 75.9147 107.047 76.064C107.442 76.2027 107.772 76.3893 108.039 76.624C108.306 76.848 108.508 77.1093 108.647 77.408C108.796 77.7067 108.892 78.0053 108.935 78.304L107.751 78.592C107.698 78.08 107.49 77.68 107.127 77.392C106.775 77.104 106.311 76.96 105.735 76.96C105.511 76.96 105.292 76.9867 105.079 77.04C104.876 77.0827 104.695 77.152 104.535 77.248C104.375 77.344 104.247 77.4667 104.151 77.616C104.055 77.7547 104.007 77.92 104.007 78.112ZM111.708 76.064H114.204V72.8H115.452V76.064H118.524V77.216H115.452V82.368C115.452 82.688 115.596 82.848 115.884 82.848H118.14V84H115.436C115.073 84 114.775 83.8827 114.54 83.648C114.316 83.4133 114.204 83.1147 114.204 82.752V77.216H111.708V76.064ZM123.249 78.112C123.249 78.496 123.409 78.7893 123.729 78.992C124.059 79.1947 124.657 79.328 125.521 79.392C126.449 79.4667 127.153 79.6907 127.633 80.064C128.123 80.4267 128.369 80.96 128.369 81.664V81.76C128.369 82.144 128.289 82.4907 128.129 82.8C127.979 83.0987 127.766 83.3547 127.489 83.568C127.222 83.7813 126.891 83.9413 126.497 84.048C126.113 84.1653 125.691 84.224 125.233 84.224C124.614 84.224 124.081 84.144 123.633 83.984C123.195 83.8133 122.827 83.5947 122.529 83.328C122.241 83.0507 122.022 82.7413 121.873 82.4C121.723 82.048 121.638 81.696 121.617 81.344L122.801 81.056C122.854 81.664 123.089 82.1547 123.505 82.528C123.921 82.8907 124.475 83.072 125.169 83.072C125.755 83.072 126.225 82.96 126.577 82.736C126.939 82.5013 127.121 82.176 127.121 81.76C127.121 81.312 126.945 80.992 126.593 80.8C126.241 80.608 125.67 80.4853 124.881 80.432C123.963 80.368 123.259 80.1547 122.769 79.792C122.278 79.4293 122.033 78.9013 122.033 78.208V78.112C122.033 77.7387 122.113 77.4133 122.273 77.136C122.433 76.848 122.646 76.608 122.913 76.416C123.19 76.224 123.499 76.08 123.841 75.984C124.182 75.888 124.539 75.84 124.913 75.84C125.435 75.84 125.894 75.9147 126.289 76.064C126.683 76.2027 127.014 76.3893 127.281 76.624C127.547 76.848 127.75 77.1093 127.889 77.408C128.038 77.7067 128.134 78.0053 128.177 78.304L126.993 78.592C126.939 78.08 126.731 77.68 126.369 77.392C126.017 77.104 125.553 76.96 124.977 76.96C124.753 76.96 124.534 76.9867 124.321 77.04C124.118 77.0827 123.937 77.152 123.777 77.248C123.617 77.344 123.489 77.4667 123.393 77.616C123.297 77.7547 123.249 77.92 123.249 78.112Z" fill="#5D5658"/>
</svg>
