<svg width="126" height="102" viewBox="0 0 126 102" fill="none" xmlns="http://www.w3.org/2000/svg">
<path d="M0 16C0 7.16344 7.16344 0 16 0H110C118.837 0 126 7.16344 126 16V86C126 94.8366 118.837 102 110 102H16C7.16344 102 0 94.8366 0 86V16Z" fill="white"/>
<path d="M40.028 46.384C38.1507 46.384 36.508 46.1067 35.1 45.552C33.692 44.976 32.5933 44.176 31.804 43.152C31.0147 42.1067 30.62 40.8907 30.62 39.504C30.62 38.1173 31.004 36.944 31.772 35.984C32.5613 35.0027 33.66 34.2667 35.068 33.776C36.476 33.264 38.1293 33.008 40.028 33.008C41.948 33.008 43.612 33.264 45.02 33.776C46.4493 34.2667 47.548 35.0027 48.316 35.984C49.1053 36.944 49.5 38.1173 49.5 39.504C49.5 40.8907 49.1053 42.1067 48.316 43.152C47.5267 44.176 46.4173 44.976 44.988 45.552C43.58 46.1067 41.9267 46.384 40.028 46.384ZM40.028 42.576C41.3293 42.576 42.3533 42.288 43.1 41.712C43.868 41.136 44.252 40.3467 44.252 39.344C44.252 38.3413 43.868 37.5627 43.1 37.008C42.3533 36.432 41.3293 36.144 40.028 36.144C38.748 36.144 37.7347 36.432 36.988 37.008C36.2413 37.5627 35.868 38.3413 35.868 39.344C35.868 40.3467 36.2413 41.136 36.988 41.712C37.7347 42.288 38.748 42.576 40.028 42.576ZM40.028 35.632C38.3 35.632 36.7853 35.3973 35.484 34.928C34.204 34.4587 33.2013 33.776 32.476 32.88C31.772 31.9627 31.42 30.8747 31.42 29.616C31.42 28.2933 31.7827 27.1627 32.508 26.224C33.2333 25.264 34.2467 24.528 35.548 24.016C36.8493 23.4827 38.3427 23.216 40.028 23.216C41.756 23.216 43.26 23.4827 44.54 24.016C45.8413 24.528 46.8547 25.264 47.58 26.224C48.3267 27.1627 48.7 28.2933 48.7 29.616C48.7 30.8747 48.3373 31.9627 47.612 32.88C46.908 33.776 45.9053 34.4587 44.604 34.928C43.3027 35.3973 41.7773 35.632 40.028 35.632ZM40.028 32.592C41.116 32.592 41.9693 32.3467 42.588 31.856C43.228 31.3653 43.548 30.6933 43.548 29.84C43.548 28.944 43.2173 28.2507 42.556 27.76C41.916 27.2693 41.0733 27.024 40.028 27.024C39.004 27.024 38.172 27.2693 37.532 27.76C36.892 28.2507 36.572 28.944 36.572 29.84C36.572 30.6933 36.8813 31.3653 37.5 31.856C38.1187 32.3467 38.9613 32.592 40.028 32.592ZM58.785 46.384C57.2277 46.384 55.681 46.1813 54.145 45.776C52.6303 45.3493 51.329 44.752 50.241 43.984L52.289 40.016C53.1423 40.6347 54.1237 41.1253 55.233 41.488C56.3637 41.8507 57.505 42.032 58.657 42.032C59.9583 42.032 60.9823 41.776 61.729 41.264C62.4757 40.752 62.849 40.0373 62.849 39.12C62.849 38.544 62.6997 38.032 62.401 37.584C62.1023 37.136 61.569 36.7947 60.801 36.56C60.0543 36.3253 58.9983 36.208 57.633 36.208H51.905L53.057 23.6H66.721V27.76H54.913L57.601 25.392L56.801 34.384L54.113 32.016H58.849C61.0677 32.016 62.849 32.3253 64.193 32.944C65.5583 33.5413 66.5503 34.3627 67.169 35.408C67.7877 36.4533 68.097 37.6373 68.097 38.96C68.097 40.2827 67.7663 41.5093 67.105 42.64C66.4437 43.7493 65.4197 44.656 64.033 45.36C62.6677 46.0427 60.9183 46.384 58.785 46.384ZM72.7282 46L88.0243 23.6H91.8323L76.5362 46H72.7282ZM74.6802 35.696C73.5922 35.696 72.6322 35.4507 71.8002 34.96C70.9682 34.448 70.3069 33.7333 69.8162 32.816C69.3469 31.8773 69.1122 30.7787 69.1122 29.52C69.1122 28.2613 69.3469 27.1733 69.8162 26.256C70.3069 25.3387 70.9682 24.624 71.8002 24.112C72.6322 23.6 73.5922 23.344 74.6802 23.344C75.7682 23.344 76.7282 23.6 77.5602 24.112C78.3922 24.624 79.0429 25.3387 79.5122 26.256C79.9816 27.1733 80.2162 28.2613 80.2162 29.52C80.2162 30.7787 79.9816 31.8773 79.5122 32.816C79.0429 33.7333 78.3922 34.448 77.5602 34.96C76.7282 35.4507 75.7682 35.696 74.6802 35.696ZM74.6802 33.072C75.3842 33.072 75.9496 32.784 76.3762 32.208C76.8029 31.6107 77.0162 30.7147 77.0162 29.52C77.0162 28.3253 76.8029 27.44 76.3762 26.864C75.9496 26.2667 75.3842 25.968 74.6802 25.968C73.9976 25.968 73.4322 26.2667 72.9842 26.864C72.5576 27.44 72.3442 28.3253 72.3442 29.52C72.3442 30.6933 72.5576 31.5787 72.9842 32.176C73.4322 32.7733 73.9976 33.072 74.6802 33.072ZM89.8803 46.256C88.8136 46.256 87.8536 46.0107 87.0002 45.52C86.1683 45.008 85.5176 44.2933 85.0483 43.376C84.5789 42.4373 84.3442 41.3387 84.3442 40.08C84.3442 38.8213 84.5789 37.7333 85.0483 36.816C85.5176 35.8987 86.1683 35.184 87.0002 34.672C87.8536 34.16 88.8136 33.904 89.8803 33.904C90.9896 33.904 91.9603 34.16 92.7922 34.672C93.6243 35.184 94.2749 35.8987 94.7443 36.816C95.2136 37.7333 95.4482 38.8213 95.4482 40.08C95.4482 41.3387 95.2136 42.4373 94.7443 43.376C94.2749 44.2933 93.6243 45.008 92.7922 45.52C91.9603 46.0107 90.9896 46.256 89.8803 46.256ZM89.8803 43.632C90.5843 43.632 91.1496 43.344 91.5763 42.768C92.0029 42.1707 92.2162 41.2747 92.2162 40.08C92.2162 38.9067 92.0029 38.0213 91.5763 37.424C91.1496 36.8267 90.5843 36.528 89.8803 36.528C89.1976 36.528 88.6323 36.8267 88.1842 37.424C87.7576 38 87.5443 38.8853 87.5443 40.08C87.5443 41.2747 87.7576 42.1707 88.1842 42.768C88.6323 43.344 89.1976 43.632 89.8803 43.632Z" fill="#048481"/>
<path d="M31.296 81.216H26.496L25.68 84H24.24L27.632 72.8H30.16L33.552 84H32.112L31.296 81.216ZM28.8 73.376L26.864 79.968H30.928L28.992 73.376H28.8ZM42.4369 81.184C42.3515 81.6213 42.2022 82.0267 41.9889 82.4C41.7862 82.7733 41.5249 83.0987 41.2049 83.376C40.8849 83.6427 40.5115 83.8507 40.0849 84C39.6582 84.1493 39.1835 84.224 38.6609 84.224C38.1062 84.224 37.5782 84.1333 37.0769 83.952C36.5862 83.7707 36.1542 83.5093 35.7809 83.168C35.4075 82.816 35.1089 82.3893 34.8849 81.888C34.6715 81.3867 34.5649 80.8107 34.5649 80.16V79.968C34.5649 79.328 34.6715 78.752 34.8849 78.24C35.1089 77.728 35.4075 77.296 35.7809 76.944C36.1542 76.592 36.5862 76.32 37.0769 76.128C37.5782 75.936 38.1062 75.84 38.6609 75.84C39.1622 75.84 39.6262 75.9147 40.0529 76.064C40.4795 76.2133 40.8529 76.4267 41.1729 76.704C41.5035 76.9707 41.7702 77.2907 41.9729 77.664C42.1862 78.0373 42.3302 78.4427 42.4049 78.88L41.1569 79.168C41.1249 78.8907 41.0449 78.624 40.9169 78.368C40.7995 78.1013 40.6342 77.872 40.4209 77.68C40.2182 77.4773 39.9675 77.3173 39.6689 77.2C39.3702 77.0827 39.0235 77.024 38.6289 77.024C38.2449 77.024 37.8822 77.0987 37.5409 77.248C37.2102 77.3867 36.9169 77.5893 36.6609 77.856C36.4049 78.112 36.2022 78.4213 36.0529 78.784C35.9142 79.1467 35.8449 79.5413 35.8449 79.968V80.16C35.8449 80.608 35.9142 81.0133 36.0529 81.376C36.2022 81.728 36.4049 82.0267 36.6609 82.272C36.9169 82.5173 37.2155 82.7093 37.5569 82.848C37.8982 82.976 38.2662 83.04 38.6609 83.04C39.0555 83.04 39.3969 82.9813 39.6849 82.864C39.9835 82.736 40.2342 82.576 40.4369 82.384C40.6502 82.1813 40.8155 81.952 40.9329 81.696C41.0609 81.44 41.1462 81.1733 41.1889 80.896L42.4369 81.184ZM52.0578 81.184C51.9724 81.6213 51.8231 82.0267 51.6098 82.4C51.4071 82.7733 51.1458 83.0987 50.8258 83.376C50.5058 83.6427 50.1324 83.8507 49.7058 84C49.2791 84.1493 48.8044 84.224 48.2818 84.224C47.7271 84.224 47.1991 84.1333 46.6978 83.952C46.2071 83.7707 45.7751 83.5093 45.4018 83.168C45.0284 82.816 44.7298 82.3893 44.5058 81.888C44.2924 81.3867 44.1858 80.8107 44.1858 80.16V79.968C44.1858 79.328 44.2924 78.752 44.5058 78.24C44.7298 77.728 45.0284 77.296 45.4018 76.944C45.7751 76.592 46.2071 76.32 46.6978 76.128C47.1991 75.936 47.7271 75.84 48.2818 75.84C48.7831 75.84 49.2471 75.9147 49.6738 76.064C50.1004 76.2133 50.4738 76.4267 50.7938 76.704C51.1244 76.9707 51.3911 77.2907 51.5938 77.664C51.8071 78.0373 51.9511 78.4427 52.0258 78.88L50.7778 79.168C50.7458 78.8907 50.6658 78.624 50.5378 78.368C50.4204 78.1013 50.2551 77.872 50.0418 77.68C49.8391 77.4773 49.5884 77.3173 49.2898 77.2C48.9911 77.0827 48.6444 77.024 48.2498 77.024C47.8658 77.024 47.5031 77.0987 47.1618 77.248C46.8311 77.3867 46.5378 77.5893 46.2818 77.856C46.0258 78.112 45.8231 78.4213 45.6738 78.784C45.5351 79.1467 45.4658 79.5413 45.4658 79.968V80.16C45.4658 80.608 45.5351 81.0133 45.6738 81.376C45.8231 81.728 46.0258 82.0267 46.2818 82.272C46.5378 82.5173 46.8364 82.7093 47.1778 82.848C47.5191 82.976 47.8871 83.04 48.2818 83.04C48.6764 83.04 49.0178 82.9813 49.3058 82.864C49.6044 82.736 49.8551 82.576 50.0578 82.384C50.2711 82.1813 50.4364 81.952 50.5538 81.696C50.6818 81.44 50.7671 81.1733 50.8098 80.896L52.0578 81.184ZM59.9186 76.064H61.1666V84H59.9186V82.56H59.7266C59.4706 83.072 59.1346 83.4773 58.7186 83.776C58.3026 84.0747 57.7746 84.224 57.1346 84.224C56.6973 84.224 56.292 84.1493 55.9186 84C55.556 83.8613 55.2413 83.648 54.9746 83.36C54.7186 83.072 54.516 82.7147 54.3666 82.288C54.228 81.8613 54.1586 81.3653 54.1586 80.8V76.064H55.4066V80.64C55.4066 81.472 55.5773 82.08 55.9186 82.464C56.26 82.848 56.7826 83.04 57.4866 83.04C58.244 83.04 58.836 82.784 59.2626 82.272C59.7 81.7493 59.9186 81.056 59.9186 80.192V76.064ZM63.4275 76.064H66.3075V77.12H66.4995C66.7022 76.6827 66.9902 76.3627 67.3635 76.16C67.7368 75.9467 68.1635 75.84 68.6435 75.84C69.4435 75.84 70.0888 76.1013 70.5795 76.624C71.0702 77.1467 71.3315 77.9093 71.3635 78.912L70.0515 79.104C70.0515 78.368 69.8755 77.84 69.5235 77.52C69.1715 77.1893 68.7395 77.024 68.2275 77.024C67.8968 77.024 67.6088 77.088 67.3635 77.216C67.1288 77.344 66.9315 77.52 66.7715 77.744C66.6115 77.968 66.4942 78.2293 66.4195 78.528C66.3448 78.8267 66.3075 79.1467 66.3075 79.488V82.848H68.3235V84H63.2355V82.848H65.0595V77.216H63.4275V76.064ZM79.2564 82.656H79.0644C78.8084 83.1893 78.451 83.584 77.9924 83.84C77.5444 84.096 77.0697 84.224 76.5684 84.224C76.0457 84.224 75.5604 84.1387 75.1124 83.968C74.6644 83.7867 74.2697 83.5253 73.9284 83.184C73.5977 82.832 73.3364 82.4053 73.1444 81.904C72.9524 81.4027 72.8564 80.8213 72.8564 80.16V79.904C72.8564 79.2533 72.9524 78.6773 73.1444 78.176C73.3364 77.6747 73.5977 77.2533 73.9284 76.912C74.2697 76.56 74.6644 76.2933 75.1124 76.112C75.5604 75.9307 76.035 75.84 76.5364 75.84C77.0804 75.84 77.571 75.9627 78.0084 76.208C78.4564 76.4427 78.8084 76.8107 79.0644 77.312H79.2564V76.064H80.5044V82.368C80.5044 82.688 80.6484 82.848 80.9364 82.848H81.3364V84H80.4884C80.1257 84 79.827 83.8827 79.5924 83.648C79.3684 83.4133 79.2564 83.1147 79.2564 82.752V82.656ZM76.6964 83.04C77.0697 83.04 77.411 82.9707 77.7204 82.832C78.0404 82.6933 78.3124 82.496 78.5364 82.24C78.7604 81.984 78.9364 81.68 79.0644 81.328C79.1924 80.9653 79.2564 80.5653 79.2564 80.128V79.936C79.2564 79.5093 79.1924 79.12 79.0644 78.768C78.9364 78.4053 78.755 78.096 78.5204 77.84C78.2964 77.584 78.0244 77.3867 77.7044 77.248C77.395 77.0987 77.059 77.024 76.6964 77.024C76.323 77.024 75.9817 77.0933 75.6724 77.232C75.363 77.3707 75.091 77.568 74.8564 77.824C74.6324 78.0693 74.4564 78.3733 74.3284 78.736C74.2004 79.088 74.1364 79.4773 74.1364 79.904V80.16C74.1364 81.0667 74.371 81.776 74.8404 82.288C75.3204 82.7893 75.939 83.04 76.6964 83.04ZM90.5413 81.184C90.4559 81.6213 90.3066 82.0267 90.0933 82.4C89.8906 82.7733 89.6293 83.0987 89.3093 83.376C88.9893 83.6427 88.6159 83.8507 88.1893 84C87.7626 84.1493 87.2879 84.224 86.7653 84.224C86.2106 84.224 85.6826 84.1333 85.1813 83.952C84.6906 83.7707 84.2586 83.5093 83.8853 83.168C83.5119 82.816 83.2133 82.3893 82.9893 81.888C82.7759 81.3867 82.6693 80.8107 82.6693 80.16V79.968C82.6693 79.328 82.7759 78.752 82.9893 78.24C83.2133 77.728 83.5119 77.296 83.8853 76.944C84.2586 76.592 84.6906 76.32 85.1813 76.128C85.6826 75.936 86.2106 75.84 86.7653 75.84C87.2666 75.84 87.7306 75.9147 88.1573 76.064C88.5839 76.2133 88.9573 76.4267 89.2773 76.704C89.6079 76.9707 89.8746 77.2907 90.0773 77.664C90.2906 78.0373 90.4346 78.4427 90.5093 78.88L89.2613 79.168C89.2293 78.8907 89.1493 78.624 89.0213 78.368C88.9039 78.1013 88.7386 77.872 88.5253 77.68C88.3226 77.4773 88.0719 77.3173 87.7733 77.2C87.4746 77.0827 87.1279 77.024 86.7333 77.024C86.3493 77.024 85.9866 77.0987 85.6453 77.248C85.3146 77.3867 85.0213 77.5893 84.7653 77.856C84.5093 78.112 84.3066 78.4213 84.1573 78.784C84.0186 79.1467 83.9493 79.5413 83.9493 79.968V80.16C83.9493 80.608 84.0186 81.0133 84.1573 81.376C84.3066 81.728 84.5093 82.0267 84.7653 82.272C85.0213 82.5173 85.3199 82.7093 85.6613 82.848C86.0026 82.976 86.3706 83.04 86.7653 83.04C87.1599 83.04 87.5013 82.9813 87.7893 82.864C88.0879 82.736 88.3386 82.576 88.5413 82.384C88.7546 82.1813 88.9199 81.952 89.0373 81.696C89.1653 81.44 89.2506 81.1733 89.2933 80.896L90.5413 81.184ZM98.4981 82.56H98.3061C98.0501 83.072 97.7141 83.4773 97.2981 83.776C96.8821 84.0747 96.3541 84.224 95.7141 84.224C95.2768 84.224 94.8715 84.1493 94.4981 84C94.1355 83.8613 93.8208 83.648 93.5541 83.36C93.2981 83.072 93.0955 82.7147 92.9461 82.288C92.8075 81.8613 92.7381 81.3653 92.7381 80.8V76.064H93.9861V80.64C93.9861 81.472 94.1568 82.08 94.4981 82.464C94.8395 82.848 95.3621 83.04 96.0661 83.04C96.8235 83.04 97.4155 82.784 97.8421 82.272C98.2795 81.7493 98.4981 81.056 98.4981 80.192V76.064H99.7461V85.952C99.7461 86.3147 99.6288 86.6133 99.3941 86.848C99.1701 87.0827 98.8768 87.2 98.5141 87.2H93.9861V86.048H98.0661C98.3541 86.048 98.4981 85.888 98.4981 85.568V82.56Z" fill="#5D5658"/>
</svg>
