<svg width="44" height="44" viewBox="0 0 44 44" fill="none" xmlns="http://www.w3.org/2000/svg">
<rect width="44" height="44" rx="8" fill="#F7F7FF"/>
<path d="M22 21C24.7614 21 27 23.2386 27 26V32H25V26C25 24.4023 23.7511 23.0963 22.1763 23.0051L22 23C20.4023 23 19.0963 24.2489 19.0051 25.8237L19 26V32H17V26C17 23.2386 19.2386 21 22 21ZM15.5 24C15.7789 24 16.0501 24.0326 16.3101 24.0942C16.142 24.594 16.0387 25.122 16.009 25.6693L16 26L16.0007 26.0856C15.8876 26.0456 15.7682 26.0187 15.6445 26.0069L15.5 26C14.7203 26 14.0795 26.5949 14.0069 27.3555L14 27.5V32H12V27.5C12 25.567 13.567 24 15.5 24ZM28.5 24C30.433 24 32 25.567 32 27.5V32H30V27.5C30 26.7203 29.4051 26.0796 28.6445 26.0069L28.5 26C28.3248 26 28.1566 26.03 28.0003 26.0852L28 26C28 25.3343 27.8916 24.694 27.6915 24.0956C27.9499 24.0326 28.2211 24 28.5 24ZM15.5 18C16.8807 18 18 19.1193 18 20.5C18 21.8807 16.8807 23 15.5 23C14.1193 23 13 21.8807 13 20.5C13 19.1193 14.1193 18 15.5 18ZM28.5 18C29.8807 18 31 19.1193 31 20.5C31 21.8807 29.8807 23 28.5 23C27.1193 23 26 21.8807 26 20.5C26 19.1193 27.1193 18 28.5 18ZM15.5 20C15.2239 20 15 20.2239 15 20.5C15 20.7761 15.2239 21 15.5 21C15.7761 21 16 20.7761 16 20.5C16 20.2239 15.7761 20 15.5 20ZM28.5 20C28.2239 20 28 20.2239 28 20.5C28 20.7761 28.2239 21 28.5 21C28.7761 21 29 20.7761 29 20.5C29 20.2239 28.7761 20 28.5 20ZM22 12C24.2091 12 26 13.7909 26 16C26 18.2091 24.2091 20 22 20C19.7909 20 18 18.2091 18 16C18 13.7909 19.7909 12 22 12ZM22 14C20.8954 14 20 14.8954 20 16C20 17.1046 20.8954 18 22 18C23.1046 18 24 17.1046 24 16C24 14.8954 23.1046 14 22 14Z" fill="#18C414"/>
</svg>
