<svg width="44" height="44" viewBox="0 0 44 44" fill="none" xmlns="http://www.w3.org/2000/svg">
<rect width="44" height="44" rx="8" fill="#F7F7FF"/>
<path d="M22 24V26C18.6863 26 16 28.6863 16 32H14C14 27.5817 17.5817 24 22 24ZM22 23C18.685 23 16 20.315 16 17C16 13.685 18.685 11 22 11C25.315 11 28 13.685 28 17C28 20.315 25.315 23 22 23ZM22 21C24.21 21 26 19.21 26 17C26 14.79 24.21 13 22 13C19.79 13 18 14.79 18 17C18 19.21 19.79 21 22 21ZM28 31.5L25.0611 33.0451L25.6224 29.7725L23.2447 27.4549L26.5305 26.9775L28 24L29.4695 26.9775L32.7553 27.4549L30.3776 29.7725L30.9389 33.0451L28 31.5Z" fill="#048481"/>
</svg>
